<?xml version="1.0" encoding="UTF-8"?>
<svg width="738px" height="544px" viewBox="0 0 738 544" version="1.1" xmlns="http://www.w3.org/2000/svg" xmlns:xlink="http://www.w3.org/1999/xlink">
    <title>banner-img</title>
    <g id="Page-1" stroke="none" stroke-width="1" fill="none" fill-rule="evenodd">
        <g id="banner-img" fill-rule="nonzero">
            <path d="M273.31588,335.18165 L120.66999,367.35672 C111.485123,369.281942 102.475126,363.409011 100.52924,354.2285 L74.33543,229.95909 C72.4102151,220.774223 78.2831493,211.764232 87.46366,209.81835 L240.10954,177.64328 C249.294405,175.718059 258.304399,181.59099 260.25028,190.7715 L286.44409,315.04091 C288.369306,324.22577 282.496383,333.235759 273.31588,335.18165 Z M87.87618,211.77535 C79.7757626,213.492352 74.5937866,221.442307 76.29245,229.54659 L102.48624,353.816 C104.203242,361.916417 112.153197,367.098393 120.25748,365.39973 L272.90336,333.22465 C281.003781,331.507653 286.185763,323.557696 284.4871,315.45341 L258.29329,191.184 C256.576288,183.083578 248.626326,177.9016 240.52204,179.60027 L87.87618,211.77535 Z" id="Shape" fill="#CCCCCC"></path>
            <path d="M230.62526,218.61842 L153.58688,234.85676 C152.188024,235.181395 150.776725,234.367184 150.35756,232.99369 C150.170864,232.296035 150.2792,231.552307 150.657165,230.936903 C151.03513,230.3215 151.649478,229.888552 152.35615,229.73958 L230.77649,213.21 C233.83844,214.93557 232.87068,218.14517 230.6243,218.61867 L230.62526,218.61842 Z" id="ea648e8d-1b31-4ae2-9566-f54bfd0d94c9" fill="#CCCCCC"></path>
            <path d="M233.47357,232.13147 L156.43519,248.36982 C155.036335,248.694448 153.625041,247.880233 153.20588,246.50674 C153.019184,245.809086 153.12752,245.065359 153.505485,244.449957 C153.88345,243.834556 154.497798,243.401609 155.20447,243.25264 L233.62481,226.723 C236.68676,228.44858 235.71899,231.65818 233.47261,232.13167 L233.47357,232.13147 Z" id="b4f9d9e0-1a47-44a2-8a19-0d88a6e9c18f" fill="#CCCCCC"></path>
            <path d="M141.40303,259.57411 L117.89167,264.52989 C116.292919,264.865197 114.72451,263.842872 114.38598,262.2448 L108.53775,234.49947 C108.202443,232.900719 109.224768,231.33231 110.82284,230.99378 L134.33421,226.038 C135.932852,225.703278 137.500879,226.725355 137.8399,228.32309 L143.68813,256.06845 C144.023437,257.667201 143.001112,259.23561 141.40304,259.57414 L141.40303,259.57411 Z" id="e168965a-63e1-4676-8cbb-3e09d33a4a3f" fill="#CCCCCC"></path>
            <path d="M239.08143,259.84676 L121.50674,284.62944 C120.107895,284.954074 118.696607,284.139866 118.27745,282.76638 C118.090748,282.068723 118.199081,281.324991 118.577047,280.709585 C118.955012,280.094178 119.569364,279.661229 120.27604,279.51226 L239.23362,254.43809 C242.29557,256.16366 241.32781,259.37326 239.08143,259.84676 L239.08143,259.84676 Z" id="af0ff97e-1a3a-4f6f-a511-2c807a938985" fill="#CCCCCC"></path>
            <path d="M241.93058,273.36376 L124.35588,298.14645 C122.957035,298.471079 121.545751,297.656872 121.12659,296.28339 C120.939888,295.585734 121.04822,294.842004 121.426183,294.226598 C121.804146,293.611192 122.418496,293.178241 123.12517,293.02927 L242.08276,267.95509 C245.14471,269.68067 244.17694,272.89027 241.93057,273.36376 L241.93058,273.36376 Z" id="e60f2d91-ad3b-421b-94cb-3aa0f5092f21" fill="#CCCCCC"></path>
            <path d="M244.77788,286.87193 L127.20317,311.65462 C125.804323,311.979243 124.393041,311.165033 123.97388,309.79155 C123.787178,309.093894 123.895511,308.350164 124.273477,307.734759 C124.651443,307.119354 125.265795,306.686406 125.97247,306.53744 L244.93006,281.46326 C247.99201,283.18884 247.02424,286.39843 244.77786,286.87193 L244.77788,286.87193 Z" id="a5554f8b-57e8-4c3b-815c-c76cc46b61b5" fill="#CCCCCC"></path>
            <path d="M247.6268,300.38793 L130.05211,325.17062 C128.653263,325.495248 127.241977,324.681036 126.82282,323.30755 C126.636115,322.609896 126.744446,321.866165 127.12241,321.250759 C127.500374,320.635354 128.114725,320.202406 128.8214,320.05344 L247.77899,294.97926 C250.84094,296.70484 249.87317,299.91443 247.6268,300.38793 L247.6268,300.38793 Z" id="eee68bf7-fbe9-4bfc-85ae-b0141fb14f45" fill="#CCCCCC"></path>
            <path d="M250.4743,313.89711 L132.89961,338.6798 C131.500763,339.004428 130.089477,338.190216 129.67032,336.81673 C129.483612,336.119075 129.591941,335.375343 129.969906,334.759937 C130.34787,334.144531 130.962223,333.711583 131.6689,333.56262 L250.62649,308.48844 C253.68849,310.21402 252.72067,313.42362 250.4743,313.89711 Z" id="b9a7afa1-162f-46e2-88e2-f572ab59fc71" fill="#CCCCCC"></path>
            <path d="M269.22888,252.03021 C268.961789,252.514844 268.733324,253.019781 268.54561,253.54033 L220.41224,265.48467 L212.03879,256.82211 L197.31379,267.75042 L210.647,284.52636 C212.859568,287.310254 216.644169,288.29949 219.936,286.95436 L272.16533,265.61214 C275.680278,268.199488 280.429497,268.341906 284.093166,265.969827 C287.756836,263.597748 289.570463,259.206153 288.648157,254.940173 C287.725851,250.674193 284.260069,247.424006 279.943718,246.77721 C275.627367,246.130414 271.361135,248.221974 269.22892,252.03024 L269.22888,252.03021 Z" id="Path" fill="#FFB8B8"></path>
            <path d="M104.93219,358.32254 C107.96987,357.384433 110.436009,355.149006 111.667019,352.217767 C112.89803,349.286529 112.767458,345.960581 111.31044,343.13487 L144.43466,251.06759 L121.431,246.99091 L96.10437,338.77191 C91.4166628,341.596257 89.5822686,347.480377 91.8344849,352.468268 C94.0867011,357.456159 99.7136334,359.971216 104.93219,358.32252 L104.93219,358.32254 Z" id="Path" fill="#FFB8B8"></path>
            <path d="M140.22788,267.41054 L117.51536,258.6937 C116.207726,258.191813 115.183307,257.145609 114.709042,255.827706 C114.234777,254.509802 114.357642,253.050734 115.04562,251.8307 L126.96062,230.705 C129.643518,223.838631 137.375753,220.436873 144.250419,223.09844 C151.125084,225.760007 154.550831,233.481645 151.91062,240.36454 L146.65509,263.9621 C146.350182,265.329165 145.465329,266.495808 144.231107,267.158024 C142.996885,267.82024 141.535543,267.912437 140.22788,267.41059 L140.22788,267.41054 Z" id="Path" fill="#F9BE33"></path>
            <polygon id="Path" fill="#FFB8B8" points="191.493 531.175 203.752 531.175 209.585 483.887 191.491 483.888"></polygon>
            <path d="M188.36551,527.17279 L212.50931,527.17179 L212.51031,527.17179 C216.591041,527.17179 220.50467,528.792685 223.390205,531.678175 C226.275741,534.563665 227.89676,538.477269 227.89676,542.558 L227.89676,543.058 L188.36625,543.05946 L188.36551,527.17279 Z" id="Path" fill="#2F2E41"></path>
            <polygon id="Path" fill="#FFB8B8" points="122.493 531.175 134.752 531.175 140.585 483.887 122.491 483.888"></polygon>
            <path d="M119.36551,527.17279 L143.50931,527.17179 L143.51031,527.17179 C147.591041,527.17179 151.50467,528.792685 154.390205,531.678175 C157.275741,534.563665 158.89676,538.477269 158.89676,542.558 L158.89676,543.058 L119.36625,543.05946 L119.36551,527.17279 Z" id="Path" fill="#2F2E41"></path>
            <path d="M135.34528,512.14248 L119.83063,512.14248 C118.600088,512.14248 117.42327,511.638345 116.574079,510.747779 C115.724887,509.857213 115.277397,508.657767 115.33576,507.42861 L122.70514,349.09661 L123.1695,349.08391 L198.08869,347.13079 L212.74909,505.55364 C212.862965,506.75327 212.49097,507.948456 211.716404,508.871565 C210.941839,509.794673 209.829417,510.368579 208.62824,510.46477 L191.20197,511.85833 C188.936667,512.038499 186.892212,510.502292 186.43488,508.27633 L164.1446,395.4999 C164.018935,394.79185 163.394474,394.282071 162.6756,394.30068 L162.6695,394.30068 C161.947997,394.284656 161.323855,394.800098 161.20319,395.51162 L139.76056,508.51162 C139.34187,510.619302 137.494143,512.138762 135.34528,512.14248 L135.34528,512.14248 Z" id="Path" fill="#2F2E41"></path>
            <circle id="Oval" fill="#FFB8B8" cx="163.765" cy="183.32358" r="24.56103"></circle>
            <path d="M155.52936,367.65127 C143.82306,367.65127 131.79914,364.57412 121.83136,355.47646 C120.755517,354.501118 120.209603,353.070992 120.36187,351.62685 C121.42877,342.04091 126.60406,292.54585 123.68951,259.4833 C122.53642,246.962948 127.334506,234.628582 136.64508,226.17861 C145.792606,217.747862 158.370281,214.1059 170.60723,216.34461 L170.60748,216.34461 C170.91339,216.39929 171.21905,216.45691 171.5252,216.5155 C191.18878,220.32117 204.85113,238.51941 203.3052,258.84656 C201.04934,288.50672 199.02713,328.62586 202.20242,351.31433 C202.472195,353.217329 201.50152,355.081147 199.78762,355.95105 C192.56281,359.60146 174.46149,367.65127 155.52936,367.65127 Z" id="Path" fill="#F9BE33"></path>
            <path d="M187.5786,269.17782 C186.412433,268.401939 185.642242,267.156413 185.46913,265.76646 L182.47682,241.77664 C180.499076,234.673287 184.642141,227.308981 191.739946,225.311417 C198.837751,223.313854 206.213593,227.436348 208.23096,234.52855 L218.08725,256.68967 C218.656352,257.969497 218.640198,259.433655 218.042996,260.700614 C217.445794,261.967572 216.326697,262.91184 214.97732,263.28736 L191.54005,269.80936 C190.190595,270.185601 188.744173,269.95501 187.5786,269.17782 L187.5786,269.17782 Z" id="Path" fill="#F9BE33"></path>
            <path d="M155.19088,207.53781 C152.866148,207.580944 150.555914,207.16296 148.39367,206.30801 C147.44228,205.94137 146.45467,205.64001 145.50505,205.27312 C137.11843,202.03295 131.59384,193.10124 131.39598,184.11264 C131.19812,175.12404 135.85298,166.39977 142.7651,160.65026 C149.67722,154.90075 158.6301,151.94892 167.59496,151.26632 C177.25157,150.53105 188.12522,152.97992 193.52123,161.02192 C194.95756,163.16257 195.96207,165.75975 195.11099,168.34438 C194.85606,169.124322 194.400783,169.823645 193.79071,170.37238 C191.38092,172.51638 188.97848,170.90429 186.52191,170.76186 C183.14538,170.5661 180.11266,173.2992 179.02266,176.50094 C177.93266,179.70268 178.41247,183.22754 179.29257,186.49322 C179.963048,188.458305 180.385729,190.499365 180.55082,192.56911 C180.695253,194.679225 179.737814,196.713895 178.01988,197.94765 C175.90997,199.22301 173.1391,198.48489 171.02795,197.21158 C168.9168,195.93827 167.0926,194.16785 164.81218,193.23086 C162.53176,192.29387 159.46798,192.50171 158.14068,194.57934 C157.718861,195.335319 157.433361,196.159629 157.29724,197.01456 C156.10732,202.43581 156.3808,202.11656 155.19088,207.53778 L155.19088,207.53781 Z" id="Path" fill="#2F2E41"></path>
            <path d="M495.38976,174 L339.38976,174 C330.005299,173.989435 322.400325,166.384461 322.38976,157 L322.38976,30 C322.400325,20.6155387 330.005299,13.0105645 339.38976,13 L495.38976,13 C504.774221,13.0105645 512.379195,20.6155387 512.38976,30 L512.38976,157 C512.379195,166.384461 504.774221,173.989435 495.38976,174 Z M339.38976,15 C331.109372,15.0093685 324.399129,21.7196124 324.38976,30 L324.38976,157 C324.399129,165.280388 331.109372,171.990631 339.38976,172 L495.38976,172 C503.670148,171.990631 510.380391,165.280388 510.38976,157 L510.38976,30 C510.380391,21.7196124 503.670148,15.0093685 495.38976,15 L339.38976,15 Z" id="Shape" fill="#CCCCCC"></path>
            <path d="M477.65826,51.138 L398.92709,51.138 C397.491356,51.1671413 396.278335,50.0793546 396.15147,48.64894 C396.112681,47.9277793 396.372082,47.2223877 396.868848,46.6981724 C397.365613,46.1739571 398.056047,45.87701 398.77825,45.87701 L478.92174,45.87701 C481.56195,48.19701 479.95302,51.13801 477.65728,51.13801 L477.65826,51.138 Z" id="eb40ba0f-f2ca-41e6-ba2e-bd824fb45cdc" fill="#CCCCCC"></path>
            <path d="M477.65826,64.948 L398.92709,64.948 C397.491356,64.9771413 396.278335,63.8893546 396.15147,62.45894 C396.112681,61.7377793 396.372082,61.0323877 396.868848,60.5081724 C397.365613,59.9839571 398.056047,59.68701 398.77825,59.68701 L478.92174,59.68701 C481.56195,62.00701 479.95302,64.94801 477.65728,64.94801 L477.65826,64.948 Z" id="ea390b26-798a-41d7-8695-eb41cfeb13d4" fill="#CCCCCC"></path>
            <path d="M381.90725,72.811 L357.87925,72.811 C356.245725,72.8093464 354.921904,71.4855251 354.92025,69.852 L354.92025,41.497 C354.921904,39.8634749 356.245725,38.5396536 357.87925,38.538 L381.90725,38.538 C383.540547,38.5402034 384.864047,39.863703 384.86625,41.497 L384.86625,69.852 C384.864596,71.4855251 383.540775,72.8093464 381.90725,72.811 L381.90725,72.811 Z" id="f9b4f79e-9356-48bc-89d8-91f80de67df3" fill="#3F3D56"></path>
            <path d="M477.42925,93.224 L357.27107,93.224 C355.835363,93.253138 354.622359,92.1653853 354.49547,90.735 C354.456669,90.013837 354.716065,89.3084394 355.212831,88.7842201 C355.709596,88.2600009 356.400034,87.96306 357.12224,87.96306 L478.69371,87.96306 C481.33393,90.28306 479.72499,93.22406 477.42925,93.22406 L477.42925,93.224 Z" id="f3294a48-db04-45e1-afc8-dab6eb28e529" fill="#CCCCCC"></path>
            <path d="M477.42925,107.038 L357.27107,107.038 C355.835346,107.067136 354.622335,105.979355 354.49547,104.54895 C354.456669,103.827787 354.716065,103.122389 355.212831,102.59817 C355.709596,102.073951 356.400034,101.77701 357.12224,101.77701 L478.69371,101.77701 C481.33393,104.09701 479.72499,107.03801 477.42925,107.03801 L477.42925,107.038 Z" id="bb6dba8b-bb0a-4f92-a6ea-c6252f741607" fill="#CCCCCC"></path>
            <path d="M477.42925,120.843 L357.27107,120.843 C355.835344,120.872141 354.62233,119.784358 354.49547,118.35395 C354.456669,117.632787 354.716065,116.927389 355.212831,116.40317 C355.709596,115.878951 356.400034,115.58201 357.12224,115.58201 L478.69371,115.58201 C481.33393,117.90201 479.72499,120.84301 477.42925,120.84301 L477.42925,120.843 Z" id="b1d451cb-91ad-40cf-876e-6a74c98e5c4f" fill="#CCCCCC"></path>
            <path d="M477.42925,134.656 L357.27107,134.656 C355.835361,134.685143 354.622355,133.597388 354.49547,132.167 C354.456669,131.445837 354.716065,130.740439 355.212831,130.21622 C355.709596,129.692001 356.400034,129.39506 357.12224,129.39506 L478.69371,129.39506 C481.33393,131.71506 479.72499,134.65606 477.42925,134.65606 L477.42925,134.656 Z" id="bcef27e7-bcca-4cc4-a6d4-200e9e04132c" fill="#CCCCCC"></path>
            <path d="M477.42925,148.462 L357.27107,148.462 C355.835346,148.491136 354.622335,147.403355 354.49547,145.97295 C354.456669,145.251786 354.716065,144.546387 355.21283,144.022167 C355.709595,143.497946 356.400033,143.201 357.12224,143.201 L478.69371,143.201 C481.33393,145.521 479.72499,148.462 477.42925,148.462 Z" id="ed29f808-f3a3-4ac8-bd45-563f73aa9d8b" fill="#CCCCCC"></path>
            <path d="M461.38976,0 C464.149875,0.00315766657 466.386602,2.23988526 466.38976,5 L466.38976,21 C466.386602,23.7601147 464.149875,25.9968423 461.38976,26 L373.38976,26 C370.629645,25.9968423 368.392918,23.7601147 368.38976,21 L368.38976,5 C368.392918,2.23988526 370.629645,0.00315766657 373.38976,0" id="Path" fill="#F9BE33"></path>
            <path d="M720.38976,331 L564.38976,331 C555.005299,330.989435 547.400325,323.384461 547.38976,314 L547.38976,187 C547.400325,177.615539 555.005299,170.010565 564.38976,170 L720.38976,170 C729.774221,170.010565 737.379195,177.615539 737.38976,187 L737.38976,314 C737.379195,323.384461 729.774221,330.989435 720.38976,331 Z M564.38976,172 C556.109372,172.009369 549.399129,178.719612 549.38976,187 L549.38976,314 C549.399129,322.280388 556.109372,328.990631 564.38976,329 L720.38976,329 C728.670148,328.990631 735.380391,322.280388 735.38976,314 L735.38976,187 C735.380391,178.719612 728.670148,172.009369 720.38976,172 L564.38976,172 Z" id="Shape" fill="#CCCCCC"></path>
            <path d="M702.65826,208.138 L623.92709,208.138 C622.491356,208.167141 621.278335,207.079355 621.15147,205.64894 C621.112681,204.927779 621.372082,204.222388 621.868848,203.698172 C622.365613,203.173957 623.056047,202.87701 623.77825,202.87701 L703.92174,202.87701 C706.56195,205.19701 704.95302,208.13801 702.65728,208.13801 L702.65826,208.138 Z" id="ab56b95a-ad0a-4db6-b885-1de339e59248" fill="#3F3D56"></path>
            <path d="M702.65826,221.948 L623.92709,221.948 C622.491356,221.977141 621.278335,220.889355 621.15147,219.45894 C621.112681,218.737779 621.372082,218.032388 621.868848,217.508172 C622.365613,216.983957 623.056047,216.68701 623.77825,216.68701 L703.92174,216.68701 C706.56195,219.00701 704.95302,221.94801 702.65728,221.94801 L702.65826,221.948 Z" id="a65ba0e0-92d5-467b-b937-6962ba88422c" fill="#3F3D56"></path>
            <path d="M606.90725,229.811 L582.87925,229.811 C581.245725,229.809346 579.921904,228.485525 579.92025,226.852 L579.92025,198.497 C579.921904,196.863475 581.245725,195.539654 582.87925,195.538 L606.90725,195.538 C608.540547,195.540203 609.864047,196.863703 609.86625,198.497 L609.86625,226.852 C609.864596,228.485525 608.540775,229.809346 606.90725,229.811 L606.90725,229.811 Z" id="fb801fe4-3edc-4e65-9957-dec023933e0a" fill="#CCCCCC"></path>
            <path d="M701.90725,306.811 L677.87925,306.811 C676.245725,306.809346 674.921904,305.485525 674.92025,303.852 L674.92025,287.497 C674.921904,285.863475 676.245725,284.539654 677.87925,284.538 L701.90725,284.538 C703.540547,284.540203 704.864047,285.863703 704.86625,287.497 L704.86625,303.852 C704.864596,305.485525 703.540775,306.809346 701.90725,306.811 L701.90725,306.811 Z" id="faab0864-6611-44c5-86ab-6dd51d336b1d" fill="#3F3D56"></path>
            <path d="M702.42925,250.224 L582.27107,250.224 C580.835363,250.253138 579.622359,249.165385 579.49547,247.735 C579.456669,247.013837 579.716065,246.308439 580.212831,245.78422 C580.709596,245.260001 581.400034,244.96306 582.12224,244.96306 L703.69371,244.96306 C706.33393,247.28306 704.72499,250.22406 702.42925,250.22406 L702.42925,250.224 Z" id="ada3facf-2b93-40cb-83c6-b6d8dc380c35" fill="#CCCCCC"></path>
            <path d="M702.42925,264.038 L582.27107,264.038 C580.835346,264.067136 579.622335,262.979355 579.49547,261.54895 C579.456669,260.827787 579.716065,260.122389 580.212831,259.59817 C580.709596,259.073951 581.400034,258.77701 582.12224,258.77701 L703.69371,258.77701 C706.33393,261.09701 704.72499,264.03801 702.42925,264.03801 L702.42925,264.038 Z" id="a50891a7-c495-4965-ab40-a1f907e5cce2" fill="#CCCCCC"></path>
            <path d="M702.42925,277.843 L582.27107,277.843 C580.835344,277.872141 579.62233,276.784358 579.49547,275.35395 C579.456669,274.632787 579.716065,273.927389 580.212831,273.40317 C580.709596,272.878951 581.400034,272.58201 582.12224,272.58201 L703.69371,272.58201 C706.33393,274.90201 704.72499,277.84301 702.42925,277.84301 L702.42925,277.843 Z" id="f645be9d-0c31-4d92-bfb2-feede413f090" fill="#CCCCCC"></path>
            <path d="M639.42925,291.656 L582.27107,291.656 C580.835361,291.685143 579.622355,290.597388 579.49547,289.167 C579.456669,288.445837 579.716065,287.740439 580.212831,287.21622 C580.709596,286.692001 581.400034,286.39506 582.12224,286.39506 L640.69371,286.39506 C643.33393,288.71506 641.72499,291.65606 639.42925,291.65606 L639.42925,291.656 Z" id="f96ba49d-c571-4857-91da-e214cd5ba82f" fill="#CCCCCC"></path>
            <path d="M639.42925,305.462 L582.27107,305.462 C580.835346,305.491136 579.622335,304.403355 579.49547,302.97295 C579.456669,302.251786 579.716065,301.546387 580.21283,301.022167 C580.709595,300.497946 581.400033,300.201 582.12224,300.201 L640.69371,300.201 C643.33393,302.521 641.72499,305.462 639.42925,305.462 L639.42925,305.462 Z" id="a7214c6f-9d52-425a-b9ef-635698aec079" fill="#CCCCCC"></path>
            <path d="M686.38976,183 L598.38976,183 C595.629645,182.996842 593.392918,180.760115 593.38976,178 L593.38976,162 C593.392918,159.239885 595.629645,157.003158 598.38976,157 L686.38976,157 C689.149875,157.003158 691.386602,159.239885 691.38976,162 L691.38976,178 C691.386602,180.760115 689.149875,182.996842 686.38976,183 L686.38976,183 Z" id="Path" fill="#F9BE33"></path>
            <path d="M382,544 L1,544 C0.44771525,544 0,543.552285 0,543 C0,542.447715 0.44771525,542 1,542 L382,542 C382.552285,542 383,542.447715 383,543 C383,543.552285 382.552285,544 382,544 Z" id="Path" fill="#3F3D56"></path>
            <circle id="Oval" fill="#F2F2F2" cx="96.76378" cy="23.3243" r="6.46689"></circle>
            <circle id="Oval" fill="#F2F2F2" cx="96.76378" cy="49.0976" r="6.46689"></circle>
            <circle id="Oval" fill="#F2F2F2" cx="96.76378" cy="74.8709" r="6.46689"></circle>
            <circle id="Oval" fill="#F2F2F2" cx="96.76378" cy="100.6442" r="6.46689"></circle>
            <circle id="Oval" fill="#F2F2F2" cx="123.76378" cy="23.3243" r="6.46689"></circle>
            <circle id="Oval" fill="#F2F2F2" cx="123.76378" cy="49.0976" r="6.46689"></circle>
            <circle id="Oval" fill="#F2F2F2" cx="123.76378" cy="74.8709" r="6.46689"></circle>
            <circle id="Oval" fill="#F2F2F2" cx="123.76378" cy="100.6442" r="6.46689"></circle>
            <circle id="Oval" fill="#F2F2F2" cx="150.76378" cy="23.3243" r="6.46689"></circle>
            <circle id="Oval" fill="#F2F2F2" cx="150.76378" cy="49.0976" r="6.46689"></circle>
            <circle id="Oval" fill="#F2F2F2" cx="150.76378" cy="74.8709" r="6.46689"></circle>
            <circle id="Oval" fill="#F2F2F2" cx="150.76378" cy="100.6442" r="6.46689"></circle>
            <circle id="Oval" fill="#F2F2F2" cx="177.76378" cy="23.3243" r="6.46689"></circle>
            <circle id="Oval" fill="#F2F2F2" cx="177.76378" cy="49.0976" r="6.46689"></circle>
            <circle id="Oval" fill="#F2F2F2" cx="177.76378" cy="74.8709" r="6.46689"></circle>
            <circle id="Oval" fill="#F2F2F2" cx="177.76378" cy="100.6442" r="6.46689"></circle>
            <circle id="Oval" fill="#F2F2F2" cx="204.76378" cy="23.3243" r="6.46689"></circle>
            <circle id="Oval" fill="#F2F2F2" cx="204.76378" cy="49.0976" r="6.46689"></circle>
            <circle id="Oval" fill="#F2F2F2" cx="204.76378" cy="74.8709" r="6.46689"></circle>
            <circle id="Oval" fill="#F2F2F2" cx="204.76378" cy="100.6442" r="6.46689"></circle>
            <circle id="Oval" fill="#F2F2F2" cx="231.76378" cy="23.3243" r="6.46689"></circle>
            <circle id="Oval" fill="#F2F2F2" cx="231.76378" cy="49.0976" r="6.46689"></circle>
            <circle id="Oval" fill="#F2F2F2" cx="231.76378" cy="74.8709" r="6.46689"></circle>
            <circle id="Oval" fill="#F2F2F2" cx="231.76378" cy="100.6442" r="6.46689"></circle>
            <circle id="Oval" fill="#F2F2F2" cx="601.76378" cy="381.3243" r="6.46689"></circle>
            <circle id="Oval" fill="#F2F2F2" cx="601.76378" cy="407.0976" r="6.46689"></circle>
            <circle id="Oval" fill="#F2F2F2" cx="601.76378" cy="432.8709" r="6.46689"></circle>
            <circle id="Oval" fill="#F2F2F2" cx="628.76378" cy="381.3243" r="6.46689"></circle>
            <circle id="Oval" fill="#F2F2F2" cx="628.76378" cy="407.0976" r="6.46689"></circle>
            <circle id="Oval" fill="#F2F2F2" cx="628.76378" cy="432.8709" r="6.46689"></circle>
            <circle id="Oval" fill="#F2F2F2" cx="655.76378" cy="381.3243" r="6.46689"></circle>
            <circle id="Oval" fill="#F2F2F2" cx="655.76378" cy="407.0976" r="6.46689"></circle>
            <circle id="Oval" fill="#F2F2F2" cx="655.76378" cy="432.8709" r="6.46689"></circle>
            <circle id="Oval" fill="#F2F2F2" cx="682.76378" cy="381.3243" r="6.46689"></circle>
            <circle id="Oval" fill="#F2F2F2" cx="682.76378" cy="407.0976" r="6.46689"></circle>
            <circle id="Oval" fill="#F2F2F2" cx="682.76378" cy="432.8709" r="6.46689"></circle>
        </g>
    </g>
</svg>