<?xml version="1.0" encoding="UTF-8"?>
<svg width="398px" height="548px" viewBox="0 0 398 548" version="1.1" xmlns="http://www.w3.org/2000/svg" xmlns:xlink="http://www.w3.org/1999/xlink">
    <title>undraw_Taken_re_yn20</title>
    <g id="Page-1" stroke="none" stroke-width="1" fill="none" fill-rule="evenodd">
        <g id="undraw_Taken_re_yn20">
            <path d="M275.814898,95.2325056 C248.264893,90.5034046 216.891604,87.9799461 184.218162,87.9799461 C154.316201,87.9799461 125.50755,90.0902439 99.724605,94.0692993 C99.7306681,93.6433942 99.7364239,93.2175526 99.75404,92.7916793 C101.175624,41.3798269 140.485931,0.58600336 188.303753,0.900222932 C236.121575,1.2144425 274.965568,42.5218321 275.803056,93.9485293 C275.809131,94.380759 275.814898,94.8066323 275.814898,95.2325056 Z" id="Path" fill="#F9BE33" fill-rule="nonzero"></path>
            <g id="Group" opacity="0.1" transform="translate(99.724605, 0.000000)" fill="#FFFFFF" fill-rule="nonzero">
                <path d="M99.724605,0.847309041 C75.0277606,-2.72115813 50.0750178,5.08447658 31.0665095,22.324708 C12.0580012,39.5649395 0.778030982,64.6214499 0.0293896166,91.2683226 C0.011525687,91.6912971 0.00578349884,92.1142716 0,92.537246 C7.64950933,91.3631383 15.5710438,90.3570335 23.703493,89.5168862 C25.7558249,44.2241752 57.7193277,6.9425543 99.724605,0.847309041 Z" id="Path"></path>
            </g>
            <path d="M314.916365,102.271625 C302.217325,98.5769124 289.336775,95.6425063 276.334299,93.481981 C255.022922,89.9376509 233.538081,87.7217068 211.987812,86.8452915 C203.010758,86.4515358 193.868428,86.248307 184.625258,86.248307 C177.299493,86.248307 170.032672,86.375325 162.866697,86.6293609 C141.845485,87.2959204 120.874069,89.1976876 100.046677,92.3261174 C84.6291919,94.60457 69.3612666,97.9263583 54.3341697,102.271625 C19.2967906,112.668047 0,126.60192 0,141.501129 C0,156.400338 19.2968143,170.33421 54.3341697,180.730632 C78.9746192,188.046868 109.354867,193.032323 142.457474,195.318647 C156.120833,196.271282 170.245944,196.75395 184.62527,196.75395 C199.052007,196.75395 213.224482,196.264931 226.929453,195.312296 C257.055125,193.22285 284.926499,188.897888 308.253144,182.610498 C308.377411,182.572393 308.495856,182.540638 308.620099,182.508884 C310.194242,182.089724 311.744402,181.651512 313.277224,181.2133 C313.827366,181.048177 314.371726,180.889405 314.916365,180.730632 C314.946957,180.717171 314.978568,180.706548 315.010849,180.698878 C315.531806,180.546456 316.046408,180.387684 316.561293,180.235262 C317.591076,179.917717 318.60874,179.606523 319.608741,179.282627 C319.656122,179.269925 319.697444,179.257223 319.739049,179.244522 C320.608759,178.965082 321.46113,178.685643 322.30714,178.406203 C322.999443,178.17122 323.685959,177.942587 324.366421,177.707604 C324.863691,177.53613 325.354889,177.364656 325.840015,177.193181 C326.195123,177.066163 326.544159,176.945496 326.887408,176.818478 C327.354889,176.653355 327.822417,176.481881 328.28385,176.310406 C328.479174,176.240546 328.674498,176.170687 328.863763,176.094476 C329.307574,175.935703 329.739549,175.77058 330.171525,175.605457 C330.639006,175.427631 331.106534,175.243455 331.567973,175.06563 C331.952839,174.919559 332.337416,174.767138 332.715928,174.614716 C333.035471,174.481347 333.349281,174.354329 333.668848,174.227311 C334.538558,173.878012 335.390929,173.515973 336.231163,173.16036 C336.651304,172.976184 337.071398,172.798359 337.485449,172.614183 C337.89372,172.436358 338.308055,172.252182 338.71055,172.068006 C339.373087,171.769488 340.02397,171.470996 340.663199,171.172529 C340.970908,171.020107 341.284712,170.874037 341.586361,170.734355 C341.817226,170.620039 342.042007,170.512074 342.272883,170.397757 C342.438442,170.321547 342.604297,170.238985 342.764081,170.156423 C343.361604,169.864282 343.953352,169.56579 344.533253,169.267297 C346.758378,168.124136 348.835371,166.95557 350.764231,165.761601 C362.865583,158.324698 369.250564,150.07488 369.250564,141.501167 C369.250564,126.60192 349.95372,112.668047 314.916365,102.271625 Z M314.596821,179.511259 C289.926897,186.833846 259.463739,191.819302 226.272412,194.086573 C212.774618,195.007453 198.821451,195.483771 184.625282,195.483771 C170.476507,195.483771 156.570437,195.013804 143.114243,194.092924 C109.869753,191.832004 79.3592138,186.846548 54.6537489,179.511259 C20.1726127,169.27361 1.18350716,155.77795 1.18350716,141.501129 C1.18350716,140.239634 1.33255994,138.983225 1.62154245,137.760449 C4.63922474,124.880826 23.202414,112.826819 54.6537489,103.490998 C69.5672609,99.1795852 84.7181971,95.8769768 100.017213,93.6026481 C120.969948,90.4565141 142.067928,88.5483682 163.215751,87.886839 C170.269624,87.6391539 177.406134,87.5163698 184.625282,87.5184599 C193.744208,87.5184599 202.762289,87.7153647 211.626657,88.0964186 C233.302398,88.965001 254.912368,91.1916072 276.34617,94.7648626 C289.236311,96.9157581 302.005957,99.8289042 314.596798,103.490998 C346.042351,112.826819 364.599475,124.874475 367.623223,137.747747 C367.916915,138.974015 368.067034,140.234999 368.067034,141.501129 C368.067034,155.77795 349.077946,169.27361 314.596798,179.511259 L314.596821,179.511259 Z" id="Shape" fill="#3F3D56" fill-rule="nonzero"></path>
            <path d="M368.352144,142.043618 C368.352144,150.542842 361.847706,158.583963 350.233244,165.766289 C348.301731,166.962283 346.222239,168.132831 344.012649,169.277931 C343.433702,169.57693 342.842941,169.875929 342.246425,170.168565 C342.086919,170.251267 341.921329,170.333969 341.756046,170.410309 C341.525566,170.524819 341.301159,170.632967 341.070668,170.747477 C340.769521,170.887434 340.456276,171.033753 340.149044,171.186395 C339.510982,171.485393 338.861184,171.784392 338.199649,172.08339 C337.797825,172.267879 337.384179,172.452367 336.976589,172.630494 C336.563228,172.814982 336.14381,172.993109 335.724393,173.177598 C334.885559,173.533851 334.034608,173.896466 333.166348,174.246358 C332.847337,174.373592 332.53405,174.500825 332.215015,174.63442 C331.837135,174.7871 331.453199,174.939781 331.068973,175.086099 C330.608303,175.264226 330.141578,175.448714 329.674853,175.626841 C329.243597,175.792244 328.812341,175.957648 328.36927,176.11669 C328.180332,176.193068 327.985334,176.263008 327.790323,176.332986 C327.329659,176.504752 326.862934,176.676517 326.396209,176.84192 C326.05352,176.969154 325.705065,177.090025 325.350561,177.217259 C324.865955,177.388998 324.375576,177.560764 323.879422,177.732554 C323.200106,177.967936 322.514763,178.196956 321.823572,178.432338 C320.978972,178.712251 320.128021,178.992165 319.259761,179.272078 C319.218225,179.284802 319.176972,179.297525 319.12967,179.310248 C318.131312,179.634694 317.115368,179.946416 316.087301,180.264499 C315.573273,180.417179 315.059529,180.576221 314.53944,180.728901 C314.507212,180.736584 314.475655,180.747226 314.445113,180.760709 C313.90137,180.919751 313.357917,181.078793 312.808704,181.244196 C311.284492,181.67679 309.730836,182.115745 308.159339,182.541977 C308.035279,182.573786 307.917032,182.605594 307.792996,182.643764 C285.137236,188.738245 257.342015,193.178691 226.581165,195.322574 C213.105857,196.25774 199.057387,196.75395 184.625276,196.75395 C170.063062,196.75395 155.896321,196.251378 142.31486,195.297128 C61.2386025,189.603432 0.898419865,167.922857 0.898419865,142.04358 C0.904803348,140.4689 1.12769918,138.903918 1.55985427,137.39956 C1.59533541,137.507708 1.63081065,137.609495 1.672353,137.717644 C10.1022433,161.561186 69.9289478,180.830688 147.554986,185.531963 C159.446946,186.257161 171.764396,186.632532 184.371142,186.632532 C197.03127,186.632532 209.395727,186.250832 221.334995,185.525601 C298.896085,180.805241 358.663702,161.529378 367.064166,137.70492 C367.206091,137.323194 367.330127,136.941494 367.436275,136.559819 C368.03524,138.31653 368.345171,140.172254 368.352144,142.043618 L368.352144,142.043618 Z" id="Path" fill="#3F3D56" fill-rule="nonzero"></path>
            <path d="M54.3543989,135.6614 C44.5549155,135.6614 34.1399549,133.457384 34.1399549,129.37246 C34.1399549,125.287537 44.5549273,123.083521 54.3543989,123.083521 C64.1538704,123.083521 74.5688488,125.287537 74.5688488,129.37246 C74.5688488,133.457384 64.1538822,135.6614 54.3543989,135.6614 Z M54.3543989,124.314613 C43.135693,124.314613 35.3175863,126.980296 35.3175863,129.37246 C35.3175863,131.764625 43.1357048,134.430302 54.3543989,134.430302 C65.573093,134.430302 73.3912173,131.764625 73.3912173,129.37246 C73.3912173,126.980296 65.573093,124.314613 54.3543989,124.314613 L54.3543989,124.314613 Z" id="Shape" fill="#3F3D56" fill-rule="nonzero"></path>
            <path d="M96.5800618,165.309255 C86.7806491,165.309255 76.3656885,163.105239 76.3656885,159.020316 C76.3656885,154.935393 86.7806609,152.731377 96.5800618,152.731377 C106.379616,152.731377 116.794582,154.935393 116.794582,159.020316 C116.794582,163.105239 106.379616,165.309255 96.5800618,165.309255 Z M96.5800618,153.962468 C85.3614384,153.962468 77.5433199,156.628152 77.5433199,159.020316 C77.5433199,161.41248 85.3614384,164.078157 96.5800618,164.078157 C107.798685,164.078157 115.616951,161.41248 115.616951,159.020316 C115.616951,156.628152 107.798756,153.962468 96.5800618,153.962468 L96.5800618,153.962468 Z" id="Shape" fill="#3F3D56" fill-rule="nonzero"></path>
            <path d="M313.997669,135.6614 C304.198256,135.6614 293.783296,133.457384 293.783296,129.37246 C293.783296,125.287537 304.198268,123.083521 313.997669,123.083521 C323.797223,123.083521 334.21219,125.287537 334.21219,129.37246 C334.21219,133.457384 323.797223,135.6614 313.997669,135.6614 Z M313.997669,124.314613 C302.778963,124.314613 294.960927,126.980296 294.960927,129.37246 C294.960927,131.764625 302.778975,134.430302 313.997669,134.430302 C325.216363,134.430302 333.034558,131.764625 333.034558,129.37246 C333.034558,126.980296 325.216363,124.314613 313.997669,124.314613 L313.997669,124.314613 Z" id="Shape" fill="#3F3D56" fill-rule="nonzero"></path>
            <path d="M272.670355,165.309255 C262.870943,165.309255 252.455982,163.105239 252.455982,159.020316 C252.455982,154.935393 262.870954,152.731377 272.670355,152.731377 C282.469909,152.731377 292.884876,154.935393 292.884876,159.020316 C292.884876,163.105239 282.469909,165.309255 272.670355,165.309255 Z M272.670355,153.962468 C261.451649,153.962468 253.633613,156.628152 253.633613,159.020316 C253.633613,161.41248 261.451661,164.078157 272.670355,164.078157 C283.889049,164.078157 291.707244,161.41248 291.707244,159.020316 C291.707244,156.628152 283.889049,153.962468 272.670355,153.962468 L272.670355,153.962468 Z" id="Shape" fill="#3F3D56" fill-rule="nonzero"></path>
            <path d="M184.625209,178.785553 C174.825796,178.785553 164.410835,176.581537 164.410835,172.496614 C164.410835,168.411691 174.825808,166.207675 184.625209,166.207675 C194.424763,166.207675 204.839729,168.411691 204.839729,172.496614 C204.839729,176.581537 194.424763,178.785553 184.625209,178.785553 Z M184.625209,167.438766 C173.406503,167.438766 165.588467,170.10445 165.588467,172.496614 C165.588467,174.888778 173.406514,177.554455 184.625209,177.554455 C195.843903,177.554455 203.662098,174.888778 203.662098,172.496614 C203.662098,170.10445 195.843903,167.438766 184.625209,167.438766 L184.625209,167.438766 Z" id="Shape" fill="#3F3D56" fill-rule="nonzero"></path>
            <ellipse id="Oval" fill="#2F2E41" fill-rule="nonzero" cx="199" cy="286.146727" rx="24.7065463" ry="26.503386"></ellipse>
            <polygon id="Rectangle" fill="#2F2E41" fill-rule="nonzero" transform="translate(185.478673, 310.166220) rotate(-26.600990) translate(-185.478673, -310.166220) " points="178.728163 306.369828 192.447556 305.978576 192.229183 313.962611 178.50979 314.353863"></polygon>
            <ellipse id="Oval" fill="#2F2E41" fill-rule="nonzero" transform="translate(177.465521, 312.584078) rotate(-56.601220) translate(-177.465521, -312.584078) " cx="177.465521" cy="312.584078" rx="2.48647246" ry="6.42817707"></ellipse>
            <polygon id="Rectangle" fill="#2F2E41" fill-rule="nonzero" transform="translate(213.086522, 310.166257) rotate(-63.399010) translate(-213.086522, -310.166257) " points="209.290131 303.415747 217.274165 303.197374 216.882913 316.916767 208.898879 317.13514"></polygon>
            <ellipse id="Oval" fill="#2F2E41" fill-rule="nonzero" transform="translate(221.099672, 312.584037) rotate(-33.398780) translate(-221.099672, -312.584037) " cx="221.099672" cy="312.584037" rx="6.42817707" ry="2.48647246"></ellipse>
            <ellipse id="Oval" fill="#FFFFFF" fill-rule="nonzero" cx="197.20316" cy="279.408578" rx="8.53498871" ry="8.98419865"></ellipse>
            <ellipse id="Oval" fill="#3F3D56" fill-rule="nonzero" transform="translate(197.601536, 275.384049) rotate(-45.000000) translate(-197.601536, -275.384049) " cx="197.601536" cy="275.384049" rx="2.92234209" ry="2.94299011"></ellipse>
            <path d="M219.20175,256.732472 C219.575799,246.88336 211.639234,238.541087 201.47488,238.099512 C191.310526,237.657937 182.767481,245.284221 182.393409,255.133339 C182.019337,264.982457 189.084863,267.220228 199.249223,267.661841 C209.413582,268.103455 218.827649,266.581583 219.20175,256.732472 Z" id="Path" fill="#F9BE33" fill-rule="nonzero"></path>
            <ellipse id="Oval" fill="#2F2E41" fill-rule="nonzero" transform="translate(225.111792, 289.641365) rotate(-40.645160) translate(-225.111792, -289.641365) " cx="225.111792" cy="289.641365" rx="4.04418609" ry="12.9402272"></ellipse>
            <ellipse id="Oval" fill="#2F2E41" fill-rule="nonzero" transform="translate(173.522914, 289.641316) rotate(-49.354840) translate(-173.522914, -289.641316) " cx="173.522914" cy="289.641316" rx="12.9402272" ry="4.04418609"></ellipse>
            <path d="M206.541071,296.813158 C207.119073,299.970593 205.013718,302.996158 201.838629,303.570947 C198.663539,304.145736 195.621056,302.052088 195.043053,298.894653 L195.041002,298.883422 C194.466099,295.725437 196.921424,294.607933 200.097074,294.036245 C203.272724,293.464557 205.966204,293.655172 206.541071,296.813158 Z" id="Path" fill="#FFFFFF" fill-rule="nonzero"></path>
            <path d="M157.672686,314.446953 C156.928426,314.446953 156.325094,313.879851 156.325056,313.180328 L156.325056,238.449469 C156.325056,237.749931 156.928411,237.182844 157.672686,237.182844 C158.416962,237.182844 159.020316,237.749931 159.020316,238.449469 L159.020316,313.180328 C159.020279,313.879851 158.416946,314.446953 157.672686,314.446953 Z" id="Path" fill="#CCCCCC" fill-rule="nonzero"></path>
            <path d="M139.704289,381.828442 C138.960029,381.828442 138.356696,381.256358 138.356659,380.55069 L138.356659,325.607324 C138.356659,324.90164 138.960014,324.329571 139.704289,324.329571 C140.448564,324.329571 141.051919,324.90164 141.051919,325.607324 L141.051919,380.55069 C141.051882,381.256358 140.448549,381.828442 139.704289,381.828442 L139.704289,381.828442 Z" id="Path" fill="#CCCCCC" fill-rule="nonzero"></path>
            <path d="M185.523702,336.009029 C184.779442,336.009029 184.176109,335.441928 184.176072,334.742405 L184.176072,260.011546 C184.176072,259.312008 184.779427,258.744921 185.523702,258.744921 C186.267977,258.744921 186.871332,259.312008 186.871332,260.011546 L186.871332,334.742405 C186.871295,335.441928 186.267962,336.009029 185.523702,336.009029 Z" id="Path" fill="#CCCCCC" fill-rule="nonzero"></path>
            <path d="M167.555305,390.812641 C166.811045,390.812641 166.207712,390.240213 166.207675,389.534121 L166.207675,358.849627 C166.207675,358.143519 166.811029,357.571106 167.555305,357.571106 C168.29958,357.571106 168.902935,358.143519 168.902935,358.849627 L168.902935,389.534121 C168.902897,390.240213 168.299565,390.812641 167.555305,390.812641 Z" id="Path" fill="#CCCCCC" fill-rule="nonzero"></path>
            <path d="M191.812641,234.487585 C191.068381,234.487585 190.465048,233.915157 190.465011,233.209064 L190.465011,202.52457 C190.465011,201.818463 191.068366,201.24605 191.812641,201.24605 C192.556916,201.24605 193.160271,201.818463 193.160271,202.52457 L193.160271,233.209064 C193.160234,233.915157 192.556901,234.487585 191.812641,234.487585 Z" id="Path" fill="#CCCCCC" fill-rule="nonzero"></path>
            <path d="M133.41535,247.963883 C132.67109,247.963883 132.067757,247.391455 132.06772,246.685362 L132.06772,216.000868 C132.06772,215.294761 132.671075,214.722348 133.41535,214.722348 C134.159625,214.722348 134.76298,215.294761 134.76298,216.000868 L134.76298,246.685362 C134.762942,247.391455 134.15961,247.963883 133.41535,247.963883 L133.41535,247.963883 Z" id="Path" fill="#CCCCCC" fill-rule="nonzero"></path>
            <path d="M235.835214,250.659142 C235.090954,250.659142 234.487622,250.086714 234.487585,249.380622 L234.487585,218.696128 C234.487585,217.99002 235.090939,217.417607 235.835214,217.417607 C236.57949,217.417607 237.182844,217.99002 237.182844,218.696128 L237.182844,249.380622 C237.182807,250.086714 236.579474,250.659142 235.835214,250.659142 Z" id="Path" fill="#CCCCCC" fill-rule="nonzero"></path>
            <path d="M234.038375,345.891648 C233.294115,345.891648 232.690782,345.320717 232.690745,344.616471 L232.690745,307.63635 C232.690745,306.93209 233.294099,306.361174 234.038375,306.361174 C234.78265,306.361174 235.386005,306.93209 235.386005,307.63635 L235.386005,344.616471 C235.385967,345.320717 234.782635,345.891648 234.038375,345.891648 Z" id="Path" fill="#CCCCCC" fill-rule="nonzero"></path>
            <path d="M209.781038,378.234763 C209.036778,378.234763 208.433446,377.662679 208.433409,376.95701 L208.433409,322.013644 C208.433409,321.307961 209.036763,320.735892 209.781038,320.735892 C210.525314,320.735892 211.128668,321.307961 211.128668,322.013644 L211.128668,376.95701 C211.128631,377.662679 210.525298,378.234763 209.781038,378.234763 Z" id="Path" fill="#CCCCCC" fill-rule="nonzero"></path>
            <path d="M214.273138,284.799097 C213.528878,284.799097 212.925545,284.231995 212.925508,283.532472 L212.925508,208.801613 C212.925508,208.102076 213.528862,207.534989 214.273138,207.534989 C215.017413,207.534989 215.620767,208.102076 215.620767,208.801613 L215.620767,283.532472 C215.62073,284.231995 215.017398,284.799097 214.273138,284.799097 Z" id="Path" fill="#CCCCCC" fill-rule="nonzero"></path>
            <ellipse id="Oval" fill="#2F2E41" fill-rule="nonzero" transform="translate(351.499267, 433.722266) rotate(-39.938370) translate(-351.499267, -433.722266) " cx="351.499267" cy="433.722266" rx="4.14203745" ry="13.2763878"></ellipse>
            <ellipse id="Oval" fill="#2F2E41" fill-rule="nonzero" transform="translate(324.409747, 428.980346) rotate(-71.565050) translate(-324.409747, -428.980346) " cx="324.409747" cy="428.980346" rx="27.1313483" ry="25.6593416"></ellipse>
            <rect id="Rectangle" fill="#2F2E41" fill-rule="nonzero" x="327.024831" y="450.108352" width="8.08577878" height="15.2731377"></rect>
            <rect id="Rectangle" fill="#2F2E41" fill-rule="nonzero" x="311.751693" y="450.108352" width="8.08577878" height="15.2731377"></rect>
            <ellipse id="Oval" fill="#2F2E41" fill-rule="nonzero" cx="328.82167" cy="465.38149" rx="6.28893905" ry="2.69525959"></ellipse>
            <ellipse id="Oval" fill="#2F2E41" fill-rule="nonzero" cx="313.548533" cy="465.38149" rx="6.28893905" ry="2.69525959"></ellipse>
            <path d="M316.606894,394.644225 C318.899526,384.718268 329.019596,378.87706 339.210693,381.597511 C349.401791,384.317961 355.804793,394.569949 353.51216,404.495913 C351.219528,414.421876 343.613308,414.453916 333.422204,411.733414 C323.231101,409.012912 314.31425,404.570208 316.606894,394.644225 Z" id="Path" fill="#CCCCCC" fill-rule="nonzero"></path>
            <ellipse id="Oval" fill="#2F2E41" fill-rule="nonzero" transform="translate(295.722901, 416.308518) rotate(-64.625740) translate(-295.722901, -416.308518) " cx="295.722901" cy="416.308518" rx="4.2488212" ry="12.904114"></ellipse>
            <ellipse id="Oval" fill="#FFFFFF" fill-rule="nonzero" cx="320.286682" cy="423.155756" rx="8.53498871" ry="8.98419865"></ellipse>
            <ellipse id="Oval" fill="#3F3D56" fill-rule="nonzero" cx="317.142212" cy="420.011287" rx="2.69525959" ry="3.14446953"></ellipse>
            <circle id="Oval" fill="#FFFFFF" fill-rule="nonzero" cx="320.735892" cy="442.022573" r="3.59367946"></circle>
            <path d="M397.407345,468.076749 L257.540736,468.076749 C257.213422,468.076749 256.948081,467.875631 256.948081,467.62754 C256.948081,467.379448 257.213422,467.17833 257.540736,467.17833 L397.407345,467.17833 C397.734659,467.17833 398,467.379448 398,467.62754 C398,467.875631 397.734659,468.076749 397.407345,468.076749 Z" id="Path" fill="#3F3D56" fill-rule="nonzero"></path>
            <text id="Hum,-hum…-Pas-de-fav" font-family="ArialMT, Arial" font-size="24" font-weight="normal" fill="#CCCCCC">
                <tspan x="9.60742187" y="514.334086">Hum, hum… Pas de favoris comme </tspan>
                <tspan x="118.292969" y="541.334086">c’est étrange…</tspan>
            </text>
        </g>
    </g>
</svg>