<?xml version="1.0" encoding="UTF-8"?>
<svg width="523px" height="390px" viewBox="0 0 523 390" version="1.1" xmlns="http://www.w3.org/2000/svg" xmlns:xlink="http://www.w3.org/1999/xlink">
    <title>undraw_Faq_re_31cw</title>
    <g id="Page-1" stroke="none" stroke-width="1" fill="none" fill-rule="evenodd">
        <g id="undraw_Faq_re_31cw">
            <circle id="Oval" fill="#2F2E41" fill-rule="nonzero" transform="translate(427.849676, 279.775545) rotate(-45.000000) translate(-427.849676, -279.775545) " cx="427.849676" cy="279.775545" r="43.06732"></circle>
            <circle id="Oval" fill="#FFFFFF" fill-rule="nonzero" transform="translate(424.428732, 269.365791) rotate(-12.481250) translate(-424.428732, -269.365791) " cx="424.428732" cy="269.365791" r="14.71924"></circle>
            <circle id="Oval" fill="#3F3D56" fill-rule="nonzero" transform="translate(418.466301, 265.564529) rotate(-12.481250) translate(-418.466301, -265.564529) " cx="418.466301" cy="265.564529" r="4.90643"></circle>
            <path d="M426.14834,250.660152 C408.53511,250.62739 396.17059,247.48136 396.200017,231.52408 C396.22955,215.5668 410.53181,202.6572 428.14507,202.689709 C445.75833,202.72234 460.01275,215.68465 459.983316,231.64193 C459.95372,247.59929 443.76156,250.69241 426.14834,250.660152 Z" id="Path" fill="#F9BE33" fill-rule="nonzero"></path>
            <path d="M495.35155,286.97444 C490.29944,304.50085 475.54791,316.76953 460.1602,327.1916 C458.01166,328.647113 455.86244,330.069113 453.71254,331.4576 C453.69797,331.46396 453.68297,331.4776 453.66822,331.48409 C453.56479,331.55054 453.46115,331.61709 453.36478,331.684 C452.92106,331.97 452.47719,332.25622 452.03716,332.539 L452.27887,332.64758 C452.27887,332.64758 452.51622,332.77379 452.25654,332.66782 C452.17926,332.63549 452.09829,332.60646 452.02117,332.57395 C443.08188,328.96859 433.98382,325.09755 427.13317,318.34353 C420.02667,311.32993 415.87365,300.3294 419.72176,291.11553 C420.227559,289.90861 420.866448,288.761895 421.62657,287.69667 C421.93871,287.25001 422.27488,286.82251 422.62489,286.40294 C426.946862,281.12803 433.78018,278.597765 440.495285,279.785828 C447.210389,280.973891 452.760743,285.695125 455.01049,292.13273 C456.14099,281.60697 447.4617,272.79008 439.10914,266.28451 C430.75291,259.78223 421.25789,252.7011 419.6424,242.23377 C418.74025,236.40989 420.76546,230.76599 424.45464,226.23525 C424.56885,226.09759 424.68291,225.96011 424.80054,225.82625 C429.291344,220.549277 435.60761,217.160715 442.48772,216.3374 C455.30093,215.00573 467.74699,221.788 477.05551,230.69681 C492.03754,245.0305 501.09482,267.047 495.35155,286.97444 Z" id="Path" fill="#E6E6E6" fill-rule="nonzero"></path>
            <path d="M471.26735,264.05008 C473.726448,267.876041 475.614457,272.040166 476.87178,276.41101 C477.935049,280.317625 478.40828,284.361253 478.27578,288.40781 C477.932788,296.734553 475.595165,304.857167 471.45954,312.09242 C468.344279,317.581431 464.547748,322.654694 460.1602,327.1916 C458.01166,328.647113 455.86244,330.069113 453.71254,331.4576 C453.69797,331.46396 453.68297,331.4776 453.66822,331.48409 C453.56479,331.55054 453.46115,331.61709 453.36478,331.684 C452.92106,331.97 452.47719,332.25622 452.03716,332.539 C452.03716,332.539 452.51622,332.77379 452.25654,332.66782 C452.17926,332.63549 452.09829,332.60646 452.02117,332.57395 C453.646923,319.245034 448.708056,305.955384 438.77217,296.92315 C433.863802,292.539659 427.988936,289.378252 421.62659,287.6967 C421.93873,287.25004 422.2749,286.82254 422.62491,286.40297 C425.082171,287.092035 427.473695,287.997012 429.77155,289.10733 C437.985632,293.051857 444.711406,299.536283 448.95334,307.6008 C452.759914,314.923695 454.39821,323.180632 453.67587,331.40213 C454.04316,331.06929 454.41087,330.72922 454.76754,330.39237 C461.56044,324.05928 467.59388,316.78993 471.67712,308.40048 C475.219598,301.29579 476.960675,293.429001 476.747,285.493 C476.41376,276.83971 472.966,268.82454 467.97406,261.84686 C462.502887,254.402633 456.03952,247.741463 448.76355,242.04844 C441.430979,236.175424 433.407287,231.221753 424.87136,227.29787 C424.471523,227.111265 424.288261,226.643897 424.45469,226.23525 C424.511613,226.058675 424.635915,225.911697 424.80059,225.82625 C424.972233,225.752225 425.168271,225.76055 425.33302,225.84886 C426.38692,226.33404 427.4335,226.82586 428.47169,227.33893 C437.118863,231.61296 445.201581,236.944675 452.53416,243.21159 C459.61694,249.25013 466.285,256.14914 471.26735,264.05008 Z" id="Path" fill="#FFFFFF" fill-rule="nonzero"></path>
            <ellipse id="Oval" fill="#2F2E41" fill-rule="nonzero" cx="73.71401" cy="331.4603" rx="10.90314" ry="4.08868"></ellipse>
            <ellipse id="Oval" fill="#2F2E41" fill-rule="nonzero" cx="99.88149" cy="330.91516" rx="10.90314" ry="4.08868"></ellipse>
            <ellipse id="Oval" fill="#2F2E41" fill-rule="nonzero" transform="translate(131.243628, 260.424357) rotate(-29.962570) translate(-131.243628, -260.424357) " cx="131.243628" cy="260.424357" rx="21.53369" ry="6.76007"></ellipse>
            <circle id="Oval" fill="#2F2E41" fill-rule="nonzero" transform="translate(82.436499, 273.946359) rotate(-80.782520) translate(-82.436499, -273.946359) " cx="82.4364994" cy="273.946359" r="43.06735"></circle>
            <rect id="Rectangle" fill="#2F2E41" fill-rule="nonzero" x="62.81087" y="307.746" width="13.08374" height="23.44171"></rect>
            <rect id="Rectangle" fill="#2F2E41" fill-rule="nonzero" x="88.97835" y="307.746" width="13.08374" height="23.44171"></rect>
            <circle id="Oval" fill="#FFFFFF" fill-rule="nonzero" cx="83.52681" cy="263.04321" r="14.71922"></circle>
            <circle id="Oval" fill="#3F3D56" fill-rule="nonzero" cx="83.52681" cy="263.04321" r="4.90642"></circle>
            <path d="M40.65975,233.89493 C37.18227,218.32114 48.29842,202.58447 65.48836,198.74609 C82.6783,194.90771 99.43257,204.42117 102.91005,219.99496 C106.38753,235.56875 94.99514,241.31262 77.80519,245.15096 C60.61524,248.9893 44.13723,249.46875 40.65975,233.89493 Z" id="Path" fill="#E6E6E6" fill-rule="nonzero"></path>
            <ellipse id="Oval" fill="#2F2E41" fill-rule="nonzero" transform="translate(33.928317, 253.962920) rotate(-64.625740) translate(-33.928317, -253.962920) " cx="33.9283171" cy="253.96292" rx="6.76007" ry="21.53368"></ellipse>
            <path d="M61.28194,289.48328 C61.28194,293.69842 72.13521,302.02185 84.17848,302.02185 C96.22175,302.02185 107.51363,290.15485 107.51363,285.93976 C107.51363,281.72467 96.2217,286.75751 84.17848,286.75751 C72.13526,286.75751 61.28194,285.26813 61.28194,289.48328 Z" id="Path" fill="#FFFFFF" fill-rule="nonzero"></path>
            <ellipse id="Oval" fill="#2F2E41" fill-rule="nonzero" cx="232.60883" cy="331.4603" rx="10.90314" ry="4.08868"></ellipse>
            <ellipse id="Oval" fill="#2F2E41" fill-rule="nonzero" cx="206.44135" cy="330.91516" rx="10.90314" ry="4.08868"></ellipse>
            <ellipse id="Oval" fill="#2F2E41" fill-rule="nonzero" transform="translate(175.079188, 260.424278) rotate(-60.037430) translate(-175.079188, -260.424278) " cx="175.079188" cy="260.424278" rx="6.76007" ry="21.53369"></ellipse>
            <circle id="Oval" fill="#2F2E41" fill-rule="nonzero" cx="223.88636" cy="273.94632" r="43.06734"></circle>
            <rect id="Rectangle" fill="#2F2E41" fill-rule="nonzero" x="230.42822" y="307.746" width="13.08374" height="23.44171"></rect>
            <rect id="Rectangle" fill="#2F2E41" fill-rule="nonzero" x="204.26074" y="307.746" width="13.08374" height="23.44171"></rect>
            <circle id="Oval" fill="#FFFFFF" fill-rule="nonzero" cx="213.79602" cy="263.04321" r="14.71922"></circle>
            <ellipse id="Oval" fill="#3F3D56" fill-rule="nonzero" transform="translate(206.796018, 261.043167) rotate(-44.974270) translate(-206.796018, -261.043167) " cx="206.796018" cy="261.043167" rx="4.92055" ry="4.88593"></ellipse>
            <path d="M228.51764,245.15094 C211.3277,241.31262 199.9353,235.56875 203.41278,219.99494 C206.89026,204.42113 223.64453,194.90769 240.83447,198.74607 C258.02441,202.58445 269.14057,218.32112 265.66309,233.89491 C262.18561,249.4687 245.70758,248.98926 228.51764,245.15094 Z" id="Path" fill="#F9BE33" fill-rule="nonzero"></path>
            <ellipse id="Oval" fill="#2F2E41" fill-rule="nonzero" transform="translate(263.394482, 285.962980) rotate(-14.874590) translate(-263.394482, -285.962980) " cx="263.394482" cy="285.96298" rx="6.76007" ry="21.53368"></ellipse>
            <path d="M214.12933,286.75815 C206.22267,286.75815 198.80925,281.72531 198.80925,285.9404 C198.80925,290.15549 206.22263,302.02249 214.12933,302.02249 C222.03603,302.02249 229.16146,293.69906 229.16146,289.48392 C229.16146,285.26878 222.036,286.75815 214.12933,286.75815 Z" id="Path" fill="#FFFFFF" fill-rule="nonzero"></path>
            <path d="M158.47168,202.539093 L154.647,202.539093 C147.513236,202.531031 141.732179,196.749974 141.72415,189.61621 L141.72415,186.40527 C141.72415,178.45215 143.23099,171.79297 146.20315,166.61279 C149.805,160.587134 154.00705,154.941217 158.74515,149.76123 C161.890689,146.598025 164.744837,143.157849 167.27298,139.48242 C169.086897,136.627035 170.023347,133.302266 169.96634,129.91992 C169.96634,121.94192 164.76858,118.06348 154.07571,118.06348 C148.14425,118.130535 142.250366,119.015166 136.56058,120.69238 C132.112111,121.962214 127.325561,121.07069 123.632559,118.284459 C119.939557,115.498227 117.767953,111.14032 117.767953,106.51416 L117.767953,100.01416 C117.742432,94.2974889 121.086362,89.1020869 126.30032,86.75781 C136.349089,82.4693825 147.185976,80.3375021 158.11035,80.5 C169.55469,80.5 179.88574,82.42236 188.81735,86.21289 C197.76511,90.01221 204.83444,95.36963 209.82858,102.13672 C214.807724,108.855876 217.454148,117.018388 217.36472,125.38086 C217.36472,134.36086 214.91306,142.18213 210.07809,148.62744 C205.29587,155.00732 198.4404,161.9917 189.70209,169.3877 C185.098001,173.216622 180.735176,177.326684 176.63861,181.69434 C173.992629,184.544367 172.122565,188.025918 171.20746,191.80566 C170.154675,198.014494 164.769122,202.553305 158.47168,202.539093 Z" id="Path" fill="#F9BE33" fill-rule="nonzero"></path>
            <path d="M156.34521,263.310555 L155.84082,263.310555 C142.618995,263.302007 131.905116,252.581203 131.905116,239.359375 C131.905116,226.137547 142.618995,215.416743 155.84082,215.408195 L156.34521,215.408195 C164.905827,215.402669 172.818531,219.966527 177.100437,227.379318 C181.382343,234.792109 181.382343,243.926641 177.100437,251.339432 C172.818531,258.752223 164.905827,263.316081 156.34521,263.310555 Z" id="Path" fill="#F9BE33" fill-rule="nonzero"></path>
            <path d="M312,336 L1,336 C0.44771525,336 0,335.552285 0,335 C0,334.447715 0.44771525,334 1,334 L312,334 C312.552285,334 313,334.447715 313,335 C313,335.552285 312.552285,336 312,336 Z" id="Path" fill="#CCCCCC" fill-rule="nonzero"></path>
            <path d="M522,336 L356,336 C355.447715,336 355,335.552285 355,335 C355,334.447715 355.447715,334 356,334 L522,334 C522.552285,334 523,334.447715 523,335 C523,335.552285 522.552285,336 522,336 Z" id="Path" fill="#CCCCCC" fill-rule="nonzero"></path>
            <ellipse id="Oval" fill="#2F2E41" fill-rule="nonzero" transform="translate(418.838624, 300.031438) rotate(-1.120410) translate(-418.838624, -300.031438) " cx="418.838624" cy="300.031438" rx="21.53368" ry="6.76007"></ellipse>
            <path d="M408.16142,149 L382.16142,149 C379.401305,148.996842 377.164578,146.760115 377.16142,144 L377.16142,118 C377.164578,115.239885 379.401305,113.003158 382.16142,113 L408.16142,113 C410.921535,113.003158 413.158262,115.239885 413.16142,118 L413.16142,144 C413.158262,146.760115 410.921535,148.996842 408.16142,149 L408.16142,149 Z M382.16142,115 C380.505315,115.001808 379.163228,116.343895 379.16142,118 L379.16142,144 C379.163228,145.656105 380.505315,146.998192 382.16142,147 L408.16142,147 C409.817525,146.998192 411.159612,145.656105 411.16142,144 L411.16142,118 C411.159612,116.343895 409.817525,115.001808 408.16142,115 L382.16142,115 Z" id="Shape" fill="#F2F2F2" fill-rule="nonzero"></path>
            <path d="M420.16142,132 L394.16142,132 C391.401305,131.996842 389.164578,129.760115 389.16142,127 L389.16142,101 C389.164578,98.2398853 391.401305,96.0031577 394.16142,96 L420.16142,96 C422.921535,96.0031577 425.158262,98.2398853 425.16142,101 L425.16142,127 C425.158262,129.760115 422.921535,131.996842 420.16142,132 L420.16142,132 Z M394.16142,98 C392.505315,98.0018077 391.163228,99.3438951 391.16142,101 L391.16142,127 C391.163228,128.656105 392.505315,129.998192 394.16142,130 L420.16142,130 C421.817525,129.998192 423.159612,128.656105 423.16142,127 L423.16142,101 C423.159612,99.3438951 421.817525,98.0018077 420.16142,98 L394.16142,98 Z" id="Shape" fill="#F2F2F2" fill-rule="nonzero"></path>
            <path d="M215.16142,49 L189.16142,49 C186.401305,48.9968423 184.164578,46.7601147 184.16142,44 L184.16142,18 C184.164578,15.2398853 186.401305,13.0031577 189.16142,13 L215.16142,13 C217.921535,13.0031577 220.158262,15.2398853 220.16142,18 L220.16142,44 C220.158262,46.7601147 217.921535,48.9968423 215.16142,49 Z M189.16142,15 C187.505315,15.0018077 186.163228,16.3438951 186.16142,18 L186.16142,44 C186.163228,45.6561049 187.505315,46.9981923 189.16142,47 L215.16142,47 C216.817525,46.9981923 218.159612,45.6561049 218.16142,44 L218.16142,18 C218.159612,16.3438951 216.817525,15.0018077 215.16142,15 L189.16142,15 Z" id="Shape" fill="#F2F2F2" fill-rule="nonzero"></path>
            <path d="M199.16142,36 L173.16142,36 C170.401305,35.9968423 168.164578,33.7601147 168.16142,31 L168.16142,5 C168.164578,2.23988526 170.401305,0.00315766657 173.16142,0 L199.16142,0 C201.921535,0.00315766657 204.158262,2.23988526 204.16142,5 L204.16142,31 C204.158262,33.7601147 201.921535,35.9968423 199.16142,36 Z M173.16142,2 C171.505315,2.00180771 170.163228,3.34389511 170.16142,5 L170.16142,31 C170.163228,32.6561049 171.505315,33.9981923 173.16142,34 L199.16142,34 C200.817525,33.9981923 202.159612,32.6561049 202.16142,31 L202.16142,5 C202.159612,3.34389511 200.817525,2.00180771 199.16142,2 L173.16142,2 Z" id="Shape" fill="#F2F2F2" fill-rule="nonzero"></path>
            <circle id="Oval" fill="#F2F2F2" fill-rule="nonzero" cx="321.22047" cy="183.17011" r="6.46689"></circle>
            <circle id="Oval" fill="#F2F2F2" fill-rule="nonzero" cx="61.22047" cy="160.17011" r="6.46689"></circle>
            <circle id="Oval" fill="#F2F2F2" fill-rule="nonzero" cx="497.22047" cy="216.17011" r="6.46689"></circle>
            <text id="Aïe-!-Pas-d’ao-sur-T" font-family="ArialMT, Arial" font-size="36" font-weight="normal" fill="#CCCCCC">
                <tspan x="48.7167969" y="382">Aïe ! Pas d’ao sur Tapas…</tspan>
            </text>
        </g>
    </g>
</svg>